999
"DXF R12 Output" (www.mydxf.blogspot.com)
 0 
SECTION
 2 
HEADER
 9 
$ACADVER
 1 
AC1009
 9 
$EXTMIN
 10 
 0 
 20 
 0 
 9 
$EXTMAX
 10 
 8.5 
 20 
 11 
 0 
ENDSEC
 0 
SECTION
 2 
ENTITIES
0
LINE
8
Layer 1
10
0.793749
20
297.793749
11
-0.793749
21
296.206251
0
LINE
8
Layer 1
10
0.000000
20
298.322915
11
0.000000
21
295.677085
0
LINE
8
Layer 1
10
2.116664
20
295.941668
11
1.058332
21
294.883336
0
LINE
8
Layer 1
10
1.587498
20
296.470834
11
0.529166
21
295.412502
0
LINE
8
Layer 1
10
1.058332
20
297.000000
11
0.000000
21
295.941668
0
LINE
8
Layer 1
10
91.482218
20
184.426813
11
90.757790
21
184.207209
0
LINE
8
Layer 1
10
90.757790
20
184.207209
11
90.277572
21
183.622216
0
LINE
8
Layer 1
10
90.277572
20
183.622216
11
90.203488
21
182.868683
0
LINE
8
Layer 1
10
90.203488
20
182.868683
11
90.560146
21
182.201140
0
LINE
8
Layer 1
10
90.560146
20
182.201140
11
91.227689
21
181.844483
0
LINE
8
Layer 1
10
91.227689
20
181.844483
11
91.981222
21
181.918566
0
LINE
8
Layer 1
10
91.981222
20
181.918566
11
92.566215
21
182.398784
0
LINE
8
Layer 1
10
92.566215
20
182.398784
11
92.786083
21
183.123212
0
LINE
8
Layer 1
10
92.786083
20
183.123212
11
92.686600
21
183.622216
0
LINE
8
Layer 1
10
92.686600
20
183.622216
11
92.404025
21
184.045019
0
LINE
8
Layer 1
10
92.404025
20
184.045019
11
91.981222
21
184.327594
0
LINE
8
Layer 1
10
91.981222
20
184.327594
11
91.482218
21
184.426813
0
LINE
8
Layer 1
10
91.482218
20
184.426813
11
91.482218
21
184.426813
0
LINE
8
Layer 1
10
55.682286
20
171.423087
11
55.176139
21
171.320958
0
LINE
8
Layer 1
10
55.176139
20
171.320958
11
54.763125
21
171.042352
0
LINE
8
Layer 1
10
54.763125
20
171.042352
11
54.484519
21
170.629074
0
LINE
8
Layer 1
10
54.484519
20
170.629074
11
54.382125
21
170.123191
0
LINE
8
Layer 1
10
54.382125
20
170.123191
11
54.484519
21
169.617044
0
LINE
8
Layer 1
10
54.484519
20
169.617044
11
54.763125
21
169.204030
0
LINE
8
Layer 1
10
54.763125
20
169.204030
11
55.176139
21
168.925424
0
LINE
8
Layer 1
10
55.176139
20
168.925424
11
55.682286
21
168.823295
0
LINE
8
Layer 1
10
55.682286
20
168.823295
11
56.188169
21
168.925424
0
LINE
8
Layer 1
10
56.188169
20
168.925424
11
56.601447
21
169.204030
0
LINE
8
Layer 1
10
56.601447
20
169.204030
11
56.880053
21
169.617044
0
LINE
8
Layer 1
10
56.880053
20
169.617044
11
56.982182
21
170.123191
0
LINE
8
Layer 1
10
56.982182
20
170.123191
11
56.883228
21
170.620607
0
LINE
8
Layer 1
10
56.883228
20
170.620607
11
56.601447
21
171.042352
0
LINE
8
Layer 1
10
56.601447
20
171.042352
11
56.179702
21
171.324133
0
LINE
8
Layer 1
10
56.179702
20
171.324133
11
55.682286
21
171.423087
0
LINE
8
Layer 1
10
55.682286
20
171.423087
11
55.682286
21
171.423087
0
LINE
8
Layer 1
10
39.432127
20
163.293246
11
39.432127
21
148.793303
0
LINE
8
Layer 1
10
39.432127
20
148.793303
11
53.932334
21
148.793303
0
LINE
8
Layer 1
10
53.932334
20
163.293246
11
39.432127
21
163.293246
0
LINE
8
Layer 1
10
53.932334
20
148.793303
11
53.932334
21
163.293246
0
LINE
8
Layer 1
10
123.775632
20
108.129278
11
133.096097
21
119.236736
0
LINE
8
Layer 1
10
133.096097
20
119.236736
11
121.988638
21
128.557202
0
LINE
8
Layer 1
10
112.668173
20
117.449743
11
123.775632
21
108.129278
0
LINE
8
Layer 1
10
121.988638
20
128.557202
11
112.668173
21
117.449743
0
LINE
8
Layer 1
10
107.932137
20
180.993054
11
107.932137
21
195.492997
0
LINE
8
Layer 1
10
107.932137
20
195.492997
11
93.432195
21
195.492997
0
LINE
8
Layer 1
10
93.432195
20
180.993054
11
107.932137
21
180.993054
0
LINE
8
Layer 1
10
93.432195
20
195.492997
11
93.432195
21
180.993054
0
LINE
8
Layer 1
10
21.432281
20
185.293057
11
21.432281
21
170.793115
0
LINE
8
Layer 1
10
21.432281
20
170.793115
11
35.932223
21
170.793115
0
LINE
8
Layer 1
10
35.932223
20
185.293057
11
21.432281
21
185.293057
0
LINE
8
Layer 1
10
35.932223
20
170.793115
11
35.932223
21
185.293057
0
LINE
8
Layer 1
10
75.432084
20
164.493129
11
75.432084
21
149.993187
0
LINE
8
Layer 1
10
75.432084
20
149.993187
11
89.932291
21
149.993187
0
LINE
8
Layer 1
10
89.932291
20
164.493129
11
75.432084
21
164.493129
0
LINE
8
Layer 1
10
89.932291
20
149.993187
11
89.932291
21
164.493129
0
LINE
8
Layer 1
10
109.597158
20
119.680442
11
116.846997
21
132.237816
0
LINE
8
Layer 1
10
116.846997
20
132.237816
11
104.289623
21
139.487919
0
LINE
8
Layer 1
10
97.039784
20
126.930546
11
109.597158
21
119.680442
0
LINE
8
Layer 1
10
104.289623
20
139.487919
11
97.039784
21
126.930546
0
LINE
8
Layer 1
10
57.432238
20
170.293053
11
57.432238
21
155.793111
0
LINE
8
Layer 1
10
57.432238
20
155.793111
11
71.932180
21
155.793111
0
LINE
8
Layer 1
10
71.932180
20
170.293053
11
57.432238
21
170.293053
0
LINE
8
Layer 1
10
71.932180
20
155.793111
11
71.932180
21
170.293053
0
LINE
8
Layer 1
10
82.955766
20
146.382688
11
79.202921
21
132.376722
0
LINE
8
Layer 1
10
79.202921
20
132.376722
11
93.208622
21
128.623877
0
LINE
8
Layer 1
10
96.961467
20
142.629578
11
82.955766
21
146.382688
0
LINE
8
Layer 1
10
93.208622
20
128.623877
11
96.961467
21
142.629578
0
LINE
8
Layer 1
10
93.432195
20
161.493287
11
93.432195
21
146.993081
0
LINE
8
Layer 1
10
93.432195
20
146.993081
11
107.932137
21
146.993081
0
LINE
8
Layer 1
10
107.932137
20
161.493287
11
93.432195
21
161.493287
0
LINE
8
Layer 1
10
107.932137
20
146.993081
11
107.932137
21
161.493287
0
LINE
8
Layer 1
10
57.432238
20
187.293040
11
57.432238
21
172.793098
0
LINE
8
Layer 1
10
57.432238
20
172.793098
11
71.932180
21
172.793098
0
LINE
8
Layer 1
10
71.932180
20
187.293040
11
57.432238
21
187.293040
0
LINE
8
Layer 1
10
71.932180
20
172.793098
11
71.932180
21
187.293040
0
LINE
8
Layer 1
10
21.432281
20
151.293084
11
21.432281
21
136.793141
0
LINE
8
Layer 1
10
21.432281
20
136.793141
11
35.932223
21
136.793141
0
LINE
8
Layer 1
10
35.932223
20
151.293084
11
21.432281
21
151.293084
0
LINE
8
Layer 1
10
35.932223
20
136.793141
11
35.932223
21
151.293084
0
LINE
8
Layer 1
10
75.432084
20
198.493103
11
75.432084
21
183.993161
0
LINE
8
Layer 1
10
75.432084
20
183.993161
11
89.932291
21
183.993161
0
LINE
8
Layer 1
10
89.932291
20
198.493103
11
75.432084
21
198.493103
0
LINE
8
Layer 1
10
89.932291
20
183.993161
11
89.932291
21
198.493103
0
LINE
8
Layer 1
10
3.432303
20
168.293070
11
3.432303
21
153.793128
0
LINE
8
Layer 1
10
3.432303
20
153.793128
11
17.932272
21
153.793128
0
LINE
8
Layer 1
10
17.932272
20
168.293070
11
3.432303
21
168.293070
0
LINE
8
Layer 1
10
17.932272
20
153.793128
11
17.932272
21
168.293070
0
LINE
8
Layer 1
10
21.432281
20
168.293070
11
21.432281
21
153.793128
0
LINE
8
Layer 1
10
21.432281
20
153.793128
11
35.932223
21
153.793128
0
LINE
8
Layer 1
10
35.932223
20
168.293070
11
21.432281
21
168.293070
0
LINE
8
Layer 1
10
35.932223
20
153.793128
11
35.932223
21
168.293070
0
LINE
8
Layer 1
10
57.432238
20
204.293027
11
57.432238
21
189.793085
0
LINE
8
Layer 1
10
57.432238
20
189.793085
11
71.932180
21
189.793085
0
LINE
8
Layer 1
10
71.932180
20
204.293027
11
57.432238
21
204.293027
0
LINE
8
Layer 1
10
71.932180
20
189.793085
11
71.932180
21
204.293027
0
LINE
8
Layer 1
10
75.432084
20
181.493116
11
75.432084
21
166.993174
0
LINE
8
Layer 1
10
75.432084
20
166.993174
11
89.932291
21
166.993174
0
LINE
8
Layer 1
10
89.932291
20
181.493116
11
75.432084
21
181.493116
0
LINE
8
Layer 1
10
89.932291
20
166.993174
11
89.932291
21
181.493116
0
LINE
8
Layer 1
10
3.432303
20
151.293084
11
3.432303
21
136.793141
0
LINE
8
Layer 1
10
3.432303
20
136.793141
11
17.932272
21
136.793141
0
LINE
8
Layer 1
10
17.932272
20
151.293084
11
3.432303
21
151.293084
0
LINE
8
Layer 1
10
17.932272
20
136.793141
11
17.932272
21
151.293084
0
LINE
8
Layer 1
10
93.432195
20
178.493274
11
93.432195
21
163.993068
0
LINE
8
Layer 1
10
93.432195
20
163.993068
11
107.932137
21
163.993068
0
LINE
8
Layer 1
10
107.932137
20
178.493274
11
93.432195
21
178.493274
0
LINE
8
Layer 1
10
107.932137
20
163.993068
11
107.932137
21
178.493274
0
LINE
8
Layer 1
10
39.432127
20
197.293219
11
39.432127
21
182.793013
0
LINE
8
Layer 1
10
39.432127
20
182.793013
11
53.932334
21
182.793013
0
LINE
8
Layer 1
10
53.932334
20
197.293219
11
39.432127
21
197.293219
0
LINE
8
Layer 1
10
53.932334
20
182.793013
11
53.932334
21
197.293219
0
LINE
8
Layer 1
10
39.432127
20
180.293232
11
39.432127
21
165.793290
0
LINE
8
Layer 1
10
39.432127
20
165.793290
11
53.932334
21
165.793290
0
LINE
8
Layer 1
10
53.932334
20
180.293232
11
39.432127
21
180.293232
0
LINE
8
Layer 1
10
53.932334
20
165.793290
11
53.932334
21
180.293232
0
LINE
8
Layer 1
10
3.432303
20
185.293057
11
3.432303
21
170.793115
0
LINE
8
Layer 1
10
3.432303
20
170.793115
11
17.932272
21
170.793115
0
LINE
8
Layer 1
10
17.932272
20
185.293057
11
3.432303
21
185.293057
0
LINE
8
Layer 1
10
17.932272
20
170.793115
11
17.932272
21
185.293057
0
LINE
8
Layer 1
10
109.682089
20
196.793157
11
104.234854
21
199.812843
0
LINE
8
Layer 1
10
104.234854
20
199.812843
11
98.626224
21
202.327969
0
LINE
8
Layer 1
10
98.626224
20
202.327969
11
92.886625
21
204.341710
0
LINE
8
Layer 1
10
92.886625
20
204.341710
11
87.047542
21
205.857506
0
LINE
8
Layer 1
10
87.047542
20
205.857506
11
81.139669
21
206.879326
0
LINE
8
Layer 1
10
81.139669
20
206.879326
11
75.194224
21
207.410344
0
LINE
8
Layer 1
10
75.194224
20
207.410344
11
69.242165
21
207.454529
0
LINE
8
Layer 1
10
69.242165
20
207.454529
11
63.314183
21
207.015057
0
LINE
8
Layer 1
10
63.314183
20
207.015057
11
57.441498
21
206.095896
0
LINE
8
Layer 1
10
57.441498
20
206.095896
11
51.655068
21
204.700220
0
LINE
8
Layer 1
10
51.655068
20
204.700220
11
45.985848
21
202.831735
0
LINE
8
Layer 1
10
45.985848
20
202.831735
11
40.464795
21
200.494144
0
LINE
8
Layer 1
10
40.464795
20
200.494144
11
35.122864
21
197.690888
0
LINE
8
Layer 1
10
35.122864
20
197.690888
11
29.991277
21
194.425669
0
LINE
8
Layer 1
10
29.991277
20
194.425669
11
25.100645
21
190.701928
0
LINE
8
Layer 1
10
25.100645
20
190.701928
11
20.482270
21
186.523104
0
LINE
8
Layer 1
10
19.282280
20
162.123260
11
19.282280
21
150.023085
0
LINE
8
Layer 1
10
129.082108
20
196.823055
11
109.682089
21
196.793157
0
LINE
8
Layer 1
10
120.598519
20
108.929906
11
117.524329
21
111.548484
0
LINE
8
Layer 1
10
117.524329
20
111.548484
11
114.334252
21
113.993231
0
LINE
8
Layer 1
10
114.334252
20
113.993231
11
111.035960
21
116.261765
0
LINE
8
Layer 1
10
111.035960
20
116.261765
11
107.636598
21
118.351442
0
LINE
8
Layer 1
10
107.636598
20
118.351442
11
104.143573
21
120.259879
0
LINE
8
Layer 1
10
104.143573
20
120.259879
11
100.564559
21
121.984695
0
LINE
8
Layer 1
10
100.564559
20
121.984695
11
96.906963
21
123.523246
0
LINE
8
Layer 1
10
96.906963
20
123.523246
11
93.178195
21
124.873148
0
LINE
8
Layer 1
10
93.178195
20
124.873148
11
89.385398
21
126.032022
0
LINE
8
Layer 1
10
89.385398
20
126.032022
11
85.536509
21
126.996956
0
LINE
8
Layer 1
10
85.536509
20
126.996956
11
81.638672
21
127.765834
0
LINE
8
Layer 1
10
81.638672
20
127.765834
11
77.699560
21
128.336275
0
LINE
8
Layer 1
10
77.699560
20
128.336275
11
73.726318
21
128.705368
0
LINE
8
Layer 1
10
73.726318
20
128.705368
11
69.726616
21
128.870997
0
LINE
8
Layer 1
10
69.726616
20
128.870997
11
65.707601
21
128.830781
0
LINE
8
Layer 1
10
65.707601
20
128.830781
11
61.677208
21
128.581808
0
LINE
8
Layer 1
10
19.282280
20
150.023085
11
19.399437
21
149.740246
0
LINE
8
Layer 1
10
19.399437
20
149.740246
11
19.682276
21
149.623300
0
LINE
8
Layer 1
10
19.682276
20
149.623300
11
19.965116
21
149.740246
0
LINE
8
Layer 1
10
19.965116
20
149.740246
11
20.082273
21
150.023085
0
LINE
8
Layer 1
10
61.677208
20
128.581808
11
37.182378
21
135.523143
0
LINE
8
Layer 1
10
19.282280
20
178.623185
11
19.282280
21
166.923060
0
LINE
8
Layer 1
10
20.082273
20
166.923060
11
20.082273
21
178.623185
0
LINE
8
Layer 1
10
120.598519
20
108.929906
11
121.390416
21
108.469267
0
LINE
8
Layer 1
10
121.390416
20
108.469267
11
122.231261
21
108.161027
0
LINE
8
Layer 1
10
122.231261
20
108.161027
11
123.100680
21
108.003336
0
LINE
8
Layer 1
10
123.100680
20
108.003336
11
123.978831
21
107.994869
0
LINE
8
Layer 1
10
123.978831
20
107.994869
11
124.845870
21
108.134040
0
LINE
8
Layer 1
10
124.845870
20
108.134040
11
125.682217
21
108.419525
0
LINE
8
Layer 1
10
125.682217
20
108.419525
11
126.467499
21
108.849737
0
LINE
8
Layer 1
10
126.467499
20
108.849737
11
127.182138
21
109.423353
0
LINE
8
Layer 1
10
19.282280
20
166.923060
11
19.399437
21
166.640220
0
LINE
8
Layer 1
10
19.399437
20
166.640220
11
19.682276
21
166.523275
0
LINE
8
Layer 1
10
19.682276
20
166.523275
11
19.965116
21
166.640220
0
LINE
8
Layer 1
10
19.965116
20
166.640220
11
20.082273
21
166.923060
0
LINE
8
Layer 1
10
134.642055
20
118.363348
11
134.815622
21
118.743818
0
LINE
8
Layer 1
10
134.815622
20
118.743818
11
134.816151
21
119.161859
0
LINE
8
Layer 1
10
134.816151
20
119.161859
11
134.643907
21
119.542859
0
LINE
8
Layer 1
10
134.643907
20
119.542859
11
134.329583
21
119.818554
0
LINE
8
Layer 1
10
130.682042
20
137.423114
11
129.389818
21
136.375100
0
LINE
8
Layer 1
10
129.389818
20
136.375100
11
128.321168
21
135.148229
0
LINE
8
Layer 1
10
128.321168
20
135.148229
11
127.486408
21
133.776101
0
LINE
8
Layer 1
10
127.486408
20
133.776101
11
126.895859
21
132.292849
0
LINE
8
Layer 1
10
126.895859
20
132.292849
11
126.560103
21
130.732074
0
LINE
8
Layer 1
10
126.560103
20
130.732074
11
126.488930
21
129.127907
0
LINE
8
Layer 1
10
126.488930
20
129.127907
11
126.692924
21
127.513422
0
LINE
8
Layer 1
10
126.692924
20
127.513422
11
127.182138
21
125.923278
0
LINE
8
Layer 1
10
130.682042
20
195.223122
11
130.682042
21
137.423114
0
LINE
8
Layer 1
10
20.082273
20
178.623185
11
19.965116
21
178.906024
0
LINE
8
Layer 1
10
19.965116
20
178.906024
11
19.682276
21
179.023234
0
LINE
8
Layer 1
10
19.682276
20
179.023234
11
19.399437
21
178.906024
0
LINE
8
Layer 1
10
19.399437
20
178.906024
11
19.282280
21
178.623185
0
LINE
8
Layer 1
10
20.575396
20
186.523104
11
3.082286
21
186.523104
0
LINE
8
Layer 1
10
3.181616
20
135.523143
11
37.182378
21
135.523143
0
LINE
8
Layer 1
10
127.182138
20
125.923278
11
134.329583
21
119.818554
0
LINE
8
Layer 1
10
1.682298
20
184.923170
11
1.682298
21
136.923316
0
LINE
8
Layer 1
10
134.642055
20
118.363348
11
127.182138
21
109.423353
0
LINE
8
Layer 1
10
1.682298
20
136.923316
11
1.858071
21
136.361871
0
LINE
8
Layer 1
10
1.858071
20
136.361871
11
2.212943
21
135.915255
0
LINE
8
Layer 1
10
2.212943
20
135.915255
11
2.702477
21
135.622891
0
LINE
8
Layer 1
10
2.702477
20
135.622891
11
3.282284
21
135.523143
0
LINE
8
Layer 1
10
20.082273
20
162.123260
11
20.082273
21
150.023085
0
LINE
8
Layer 1
10
130.682042
20
195.223122
11
130.556365
21
195.845950
0
LINE
8
Layer 1
10
130.556365
20
195.845950
11
130.213465
21
196.354479
0
LINE
8
Layer 1
10
130.213465
20
196.354479
11
129.704937
21
196.697378
0
LINE
8
Layer 1
10
129.704937
20
196.697378
11
129.082108
21
196.823055
0
LINE
8
Layer 1
10
20.082273
20
162.123260
11
19.965116
21
162.406099
0
LINE
8
Layer 1
10
19.965116
20
162.406099
11
19.682276
21
162.523044
0
LINE
8
Layer 1
10
19.682276
20
162.523044
11
19.399437
21
162.406099
0
LINE
8
Layer 1
10
19.399437
20
162.406099
11
19.282280
21
162.123260
0
LINE
8
Layer 1
10
3.082286
20
186.523104
11
2.520854
21
186.347421
0
LINE
8
Layer 1
10
2.520854
20
186.347421
11
2.074463
21
185.992615
0
LINE
8
Layer 1
10
2.074463
20
185.992615
11
1.781988
21
185.502872
0
LINE
8
Layer 1
10
1.781988
20
185.502872
11
1.682298
21
184.923170
0
LINE
8
Layer 1
10
127.482175
20
152.323105
11
127.482175
21
137.723151
0
LINE
8
Layer 1
10
127.782212
20
152.623142
11
129.582170
21
152.623142
0
LINE
8
Layer 1
10
127.782212
20
137.423114
11
129.582170
21
137.423114
0
LINE
8
Layer 1
10
129.882207
20
137.723151
11
129.882207
21
152.323105
0
LINE
8
Layer 1
10
127.782212
20
152.623142
11
127.570016
21
152.535301
0
LINE
8
Layer 1
10
127.570016
20
152.535301
11
127.482175
21
152.323105
0
LINE
8
Layer 1
10
127.482175
20
137.723151
11
127.570016
21
137.510955
0
LINE
8
Layer 1
10
127.570016
20
137.510955
11
127.782212
21
137.423114
0
LINE
8
Layer 1
10
129.882207
20
152.323105
11
129.794366
21
152.535301
0
LINE
8
Layer 1
10
129.794366
20
152.535301
11
129.582170
21
152.623142
0
LINE
8
Layer 1
10
129.582170
20
137.423114
11
129.794366
21
137.510955
0
LINE
8
Layer 1
10
129.794366
20
137.510955
11
129.882207
21
137.723151
0
LINE
8
Layer 1
10
76.482214
20
132.410589
11
61.882260
21
132.410589
0
LINE
8
Layer 1
10
76.782251
20
132.110816
11
76.782251
21
130.310593
0
LINE
8
Layer 1
10
61.582222
20
132.110816
11
61.582222
21
130.310593
0
LINE
8
Layer 1
10
61.882260
20
130.010821
11
76.482214
21
130.010821
0
LINE
8
Layer 1
10
76.782251
20
132.110816
11
76.694410
21
132.322747
0
LINE
8
Layer 1
10
76.694410
20
132.322747
11
76.482214
21
132.410589
0
LINE
8
Layer 1
10
61.882260
20
132.410589
11
61.670064
21
132.322747
0
LINE
8
Layer 1
10
61.670064
20
132.322747
11
61.582222
21
132.110816
0
LINE
8
Layer 1
10
76.482214
20
130.010821
11
76.694410
21
130.098662
0
LINE
8
Layer 1
10
76.694410
20
130.098662
11
76.782251
21
130.310593
0
LINE
8
Layer 1
10
61.582222
20
130.310593
11
61.670064
21
130.098662
0
LINE
8
Layer 1
10
61.670064
20
130.098662
11
61.882260
21
130.010821
 0 
ENDSEC
 0 
EOF